#!OML:ASF H:\BabyWalks\Project 1\Capture day 1\Session 1\baby.ASF
:FULLY-SPECIFIED
:DEGREES
763
root 41.9025 17.1763 -1.20786 301.195 79.9759 304.816
lowerback 21.1064 1.49407 7.86536
upperback 7.01823 4.15693 2.16719
thorax -3.73438 2.29215 -3.11801
lowerneck 0.294774 1.36944 7.76842
upperneck -2.06253 1.78857 -7.26507
head -0.566085 0.898718 -3.75631
rclavicle -2.57426e-014 -2.03754e-014
rhumerus -38.6115 12.3085 -82.313
rradius 62.6903
rwrist -4.04592
rhand -13.796 -16.4888
rfingers 7.12502
rthumb 12.3258 -46.1055
lclavicle -2.57426e-014 -2.03754e-014
lhumerus -54.902 -2.5187 76.9668
lradius 39.4043
lwrist -4.44592
lhand 1.05176 7.54913
lfingers 7.12502
lthumb 26.5974 35.7012
rfemur 7.6884 12.0181 30.4859
rtibia 17.8852
rfoot -20.3357 3.93745
rtoes 5.91533
lfemur -22.197 -2.85397 -4.73477
ltibia 35.0043
lfoot -13.4418 -5.73509
ltoes -9.09
764
root 41.9808 17.1557 -1.23256 301.89 79.8315 305.656
lowerback 21.13 1.54946 7.59174
upperback 7.11863 4.16798 2.07259
thorax -3.65044 2.3043 -3.06638
lowerneck 0.307659 1.41939 7.75797
upperneck -2.22052 1.85508 -6.91464
head -0.616609 0.928358 -3.63272
rclavicle 1.13059e-014 -2.69353e-014
rhumerus -38.5747 11.9329 -82.3789
rradius 62.6073
rwrist -3.87566
rhand -13.9191 -16.3677
rfingers 7.12502
rthumb 12.2071 -45.9915
lclavicle 1.13059e-014 -2.69353e-014
lhumerus -54.2837 -2.80316 77.0661
lradius 39.3591
lwrist -4.7644
lhand 1.29235 7.57221
lfingers 7.12502
lthumb 26.8276 35.6892
rfemur 8.04051 11.8909 30.427
rtibia 18.0407
rfoot -20.6598 3.98208
rtoes 5.45908
lfemur -22.2147 -2.37755 -4.86153
ltibia 35.9675
lfoot -14.0388 -6.04906
ltoes -8.76043
765
root 42.0582 17.1378 -1.25577 302.697 79.7762 306.588
lowerback 21.1325 1.61954 7.24776
upperback 7.21737 4.18022 1.95359
thorax -3.5611 2.31619 -3.00046
lowerneck 0.313943 1.45043 7.71585
upperneck -2.38322 1.89745 -6.53012
head -0.670039 0.945607 -3.49178
rclavicle -3.77815e-014 1.93815e-014
rhumerus -38.5596 11.501 -82.4417
rradius 62.4749
rwrist -3.6676
rhand -14.0704 -16.2748
rfingers 7.12502
rthumb 12.0612 -45.9073
lclavicle -3.77815e-014 1.93815e-014
lhumerus -53.6178 -3.14892 77.1518
lradius 39.4021
lwrist -5.08299
lhand 1.57511 7.58575
lfingers 7.12502
lthumb 27.0982 35.6609
rfemur 8.33949 11.7507 30.2736
rtibia 18.2488
rfoot -21.0081 3.9729
rtoes 4.90543
lfemur -22.2019 -1.9538 -5.0766
ltibia 36.8008
lfoot -14.5986 -6.3867
ltoes -8.34791
766
root 42.1342 17.1228 -1.2779 303.554 79.7732 307.537
lowerback 21.1199 1.69793 6.87206
upperback 7.3022 4.19478 1.81878
thorax -3.48018 2.32747 -2.93361
lowerneck 0.334351 1.46353 7.65787
upperneck -2.56552 1.91807 -6.12973
head -0.734209 0.951894 -3.34359
rclavicle 7.88927e-015 -1.64494e-014
rhumerus -38.5724 11.0302 -82.5109
rradius 62.2942
rwrist -3.43145
rhand -14.249 -16.2166
rfingers 7.12502
rthumb 11.889 -45.8591
lclavicle 7.88927e-015 -1.64494e-014
lhumerus -52.9319 -3.54251 77.2161
lradius 39.5544
lwrist -5.3738
lhand 1.87372 7.58976
lfingers 7.12502
lthumb 27.3838 35.6201
rfemur 8.5977 11.5961 30.0676
rtibia 18.4566
rfoot -21.3519 3.8891
rtoes 4.14487
lfemur -22.1716 -1.56809 -5.33629
ltibia 37.5059
lfoot -15.1133 -6.66396
ltoes -7.99121
767
root 42.2087 17.1103 -1.29953 304.41 79.7934 308.446
lowerback 21.0808 1.77787 6.49497
upperback 7.37659 4.20895 1.67755
thorax -3.3967 2.33769 -2.87127
lowerneck 0.371204 1.46388 7.58884
upperneck -2.78289 1.92382 -5.72927
head -0.813604 0.950641 -3.19486
rclavicle -1.18525e-014 -3.37934e-015
rhumerus -38.587 10.5396 -82.586
rradius 62.0513
rwrist -3.16499
rhand -14.447 -16.1716
rfingers 7.12502
rthumb 11.6981 -45.825
lclavicle -1.18525e-014 -3.37934e-015
lhumerus -52.2318 -3.95048 77.2511
lradius 39.8328
lwrist -5.61864
lhand 2.16043 7.59206
lfingers 7.12502
lthumb 27.658 35.5787
rfemur 8.82797 11.4188 29.841
rtibia 18.6235
rfoot -21.6722 3.71196
rtoes 3.07163
lfemur -22.1368 -1.20677 -5.60637
ltibia 38.0987
lfoot -15.5873 -6.84502
ltoes -7.84158
768
root 42.2817 17.1009 -1.32112 305.241 79.8169 309.286
lowerback 21.0152 1.856 6.13857
upperback 7.43721 4.22346 1.53592
thorax -3.31289 2.34716 -2.81966
lowerneck 0.420744 1.45698 7.5205
upperneck -3.02861 1.92196 -5.34809
head -0.904532 0.945419 -3.0544
rclavicle -2.56929e-014 1.2424e-014
rhumerus -38.6019 10.0455 -82.6663
rradius 61.752
rwrist -2.87442
rhand -14.6474 -16.1469
rfingers 7.12502
rthumb 11.5048 -45.8112
lclavicle -2.56929e-014 1.2424e-014
lhumerus -51.5295 -4.35088 77.2551
lradius 40.2408
lwrist -5.80795
lhand 2.4059 7.60143
lfingers 7.12502
lthumb 27.8927 35.5502
rfemur 9.03415 11.234 29.615
rtibia 18.7252
rfoot -21.9427 3.45936
rtoes 1.83187
lfemur -22.1076 -0.867157 -5.86505
ltibia 38.6008
lfoot -16.0286 -7.0012
ltoes -7.71845
769
root 42.353 17.0943 -1.34306 306.059 79.8273 310.064
lowerback 20.933 1.93106 5.8163
upperback 7.47565 4.24014 1.39604
thorax -3.2419 2.35614 -2.78536
lowerneck 0.469489 1.44972 7.45635
upperneck -3.27804 1.9211 -4.99063
head -0.996051 0.940504 -2.9238
rclavicle 7.05686e-014 -5.36719e-015
rhumerus -38.6176 9.56374 -82.7561
rradius 61.3944
rwrist -2.56816
rhand -14.8389 -16.1458
rfingers 7.12502
rthumb 11.3202 -45.8203
lclavicle 7.05686e-014 -5.36719e-015
lhumerus -50.845 -4.72953 77.2258
lradius 40.7845
lwrist -5.9242
lhand 2.57602 7.62764
lfingers 7.12502
lthumb 28.0553 35.5499
rfemur 9.21079 11.0484 29.4026
rtibia 18.7624
rfoot -22.1583 3.13761
rtoes 0.441747
lfemur -22.0921 -0.543113 -6.09871
ltibia 39.0271
lfoot -16.4304 -7.15508
ltoes -7.5496
770
root 42.4223 17.0904 -1.36554 306.881 79.8197 310.796
lowerback 20.8418 2.00066 5.53118
upperback 7.4876 4.25662 1.2558
thorax -3.19195 2.36318 -2.77248
lowerneck 0.487818 1.44915 7.39691
upperneck -3.49609 1.92885 -4.65329
head -1.07126 0.939684 -2.80093
rclavicle 5.06901e-015 2.98177e-014
rhumerus -38.6307 9.11168 -82.863
rradius 60.9721
rwrist -2.24751
rhand -15.016 -16.1425
rfingers 7.12502
rthumb 11.1493 -45.8263
lclavicle 5.06901e-015 2.98177e-014
lhumerus -50.1868 -5.08223 77.1647
lradius 41.4591
lwrist -5.94375
lhand 2.62203 7.66334
lfingers 7.12502
lthumb 28.0993 35.5784
rfemur 9.34395 10.8783 29.2065
rtibia 18.7504
rfoot -22.3152 2.77229
rtoes -0.944725
lfemur -22.0968 -0.235355 -6.30563
ltibia 39.3858
lfoot -16.8041 -7.266
ltoes -7.41633
771
root 42.4899 17.0895 -1.38855 307.788 79.813 311.564
lowerback 20.7352 2.06724 5.2597
upperback 7.47328 4.27037 1.11094
thorax -3.16127 2.36694 -2.77151
lowerneck 0.482129 1.45575 7.33541
upperneck -3.67371 1.9457 -4.33553
head -1.12851 0.943579 -2.68416
rclavicle -3.05134e-014 1.11319e-014
rhumerus -38.6419 8.70536 -82.9847
rradius 60.4868
rwrist -1.91809
rhand -15.1698 -16.138
rfingers 7.12502
rthumb 11.001 -45.8297
lclavicle -3.05134e-014 1.11319e-014
lhumerus -49.5626 -5.40232 77.0756
lradius 42.2577
lwrist -5.86296
lhand 2.52547 7.70924
lfingers 7.12502
lthumb 28.007 35.6394
rfemur 9.42522 10.727 28.9999
rtibia 18.7113
rfoot -22.4283 2.38377
rtoes -2.23424
lfemur -22.1224 0.0471384 -6.51441
ltibia 39.6806
lfoot -17.1458 -7.34352
ltoes -7.28206
772
root 42.5557 17.0912 -1.41207 308.801 79.8121 312.396
lowerback 20.6194 2.12714 4.99102
upperback 7.43562 4.27485 0.958875
thorax -3.15084 2.36436 -2.77795
lowerneck 0.434526 1.47553 7.26707
upperneck -3.79645 1.97826 -4.02714
head -1.15978 0.955616 -2.56861
rclavicle -3.56818e-014 4.37326e-015
rhumerus -38.6433 8.3646 -83.1267
rradius 59.9423
rwrist -1.57535
rhand -15.2888 -16.1385
rfingers 7.12502
rthumb 10.8862 -45.8363
lclavicle -3.56818e-014 4.37326e-015
lhumerus -48.9727 -5.67813 76.9543
lradius 43.1681
lwrist -5.67389
lhand 2.268 7.75814
lfingers 7.12502
lthumb 27.7609 35.7283
rfemur 9.44949 10.6009 28.7759
rtibia 18.6677
rfoot -22.5076 1.99517
rtoes -3.32226
lfemur -22.1669 0.299382 -6.7343
ltibia 39.9158
lfoot -17.4497 -7.39027
ltoes -7.13218
773
root 42.6195 17.0954 -1.436 309.958 79.8222 313.336
lowerback 20.5023 2.18284 4.72052
upperback 7.37081 4.27255 0.796373
thorax -3.1686 2.35638 -2.7939
lowerneck 0.365109 1.50395 7.18888
upperneck -3.87135 2.02134 -3.72416
head -1.17138 0.973432 -2.45272
rclavicle -2.40529e-014 3.4191e-014
rhumerus -38.6498 8.08887 -83.2871
rradius 59.3483
rwrist -1.20239
rhand -15.3589 -16.1364
rfingers 7.12502
rthumb 10.8186 -45.8378
lclavicle -2.40529e-014 3.4191e-014
lhumerus -48.4281 -5.93233 76.8123
lradius 44.1775
lwrist -5.35199
lhand 1.83166 7.80898
lfingers 7.12502
lthumb 27.3436 35.8457
rfemur 9.41169 10.5038 28.5238
rtibia 18.6376
rfoot -22.5642 1.63344
rtoes -4.09258
lfemur -22.2272 0.518464 -6.9768
ltibia 40.0955
lfoot -17.7164 -7.40097
ltoes -6.97876
774
root 42.6812 17.1013 -1.46027 311.253 79.8461 314.38
lowerback 20.3859 2.23184 4.44805
upperback 7.28016 4.26017 0.621041
thorax -3.21422 2.34167 -2.82117
lowerneck 0.291053 1.53667 7.09513
upperneck -3.9131 2.07011 -3.41892
head -1.17152 0.994656 -2.33329
rclavicle 3.79679e-014 -4.37326e-015
rhumerus -38.665 7.88305 -83.4706
rradius 58.7159
rwrist -0.805254
rhand -15.3779 -16.129
rfingers 7.12502
rthumb 10.8003 -45.8314
lclavicle 3.79679e-014 -4.37326e-015
lhumerus -47.927 -6.16451 76.6447
lradius 45.2724
lwrist -4.88971
lhand 1.22862 7.85393
lfingers 7.12502
lthumb 26.7666 35.9802
rfemur 9.31683 10.4217 28.2395
rtibia 18.6249
rfoot -22.6134 1.29889
rtoes -4.61267
lfemur -22.3068 0.704417 -7.24583
ltibia 40.2314
lfoot -17.9468 -7.38088
ltoes -6.81708
775
root 42.7406 17.1086 -1.48452 312.599 79.8772 315.451
lowerback 20.2684 2.26996 4.18408
upperback 7.17246 4.23485 0.438926
thorax -3.27702 2.31975 -2.85813
lowerneck 0.214689 1.57289 6.99099
upperneck -3.94126 2.12341 -3.11785
head -1.16692 1.0186 -2.21374
rclavicle -3.10104e-014 -1.23246e-014
rhumerus -38.6852 7.74944 -83.6741
rradius 58.0599
rwrist -0.378743
rhand -15.3456 -16.0982
rfingers 7.12502
rthumb 10.8314 -45.7988
lclavicle -3.10104e-014 -1.23246e-014
lhumerus -47.4555 -6.36467 76.4496
lradius 46.4407
lwrist -4.2853
lhand 0.487339 7.89869
lfingers 7.12502
lthumb 26.0571 36.1315
rfemur 9.17505 10.3511 27.9415
rtibia 18.6208
rfoot -22.6607 0.988116
rtoes -4.85923
lfemur -22.4126 0.856517 -7.52526
ltibia 40.3395
lfoot -18.143 -7.33719
ltoes -6.65661
776
root 42.7974 17.1168 -1.50854 313.934 79.9047 316.489
lowerback 20.1634 2.29655 3.9442
upperback 7.04378 4.19941 0.253228
thorax -3.36716 2.29184 -2.91181
lowerneck 0.152414 1.60682 6.87713
upperneck -3.96852 2.17467 -2.81923
head -1.16492 1.04186 -2.09402
rclavicle -1.74931e-014 4.37326e-015
rhumerus -38.7225 7.68412 -83.8981
rradius 57.4014
rwrist 0.065149
rhand -15.2492 -16.0613
rfingers 7.12502
rthumb 10.9244 -45.7571
lclavicle -1.74931e-014 4.37326e-015
lhumerus -47.016 -6.53174 76.2239
lradius 47.6694
lwrist -3.54615
lhand -0.356974 7.9367
lfingers 7.12502
lthumb 25.2484 36.2861
rfemur 8.99866 10.2819 27.6462
rtibia 18.6093
rfoot -22.6989 0.692671
rtoes -4.8888
lfemur -22.5503 0.98976 -7.79925
ltibia 40.4374
lfoot -18.3112 -7.28201
ltoes -6.50112
